# xmcd CD database file
#
# Track frame offsets:
#	150
#	19593
#	36440
#	51702
#	67581
#	84118
#	104335
#	123849
#	141512
#	160062
#	179295
#	196335
#	218218
#	236348
#	255324
#	272744
#
# Disc length: 3942 seconds
#
# Revision: 1
# Processed by: cddbd v1.5.2PL0 Copyright (c) Steve Scherf et al.
# Submitted via: CDex 1.51
#
DISCID=d70f6410
DTITLE=Various Artist - EZ-PP-1-CD-3
DYEAR=1900
DGENRE=Blues
TTITLE0=Leona Lewis - Footprints In The Sands
TTITLE1=James Blunt - You're Beautiful
TTITLE2=Christina Aguilera - Candyman
TTITLE3=Miley Cyrus See - You Again
TTITLE4=Take That - Patience
TTITLE5=Sara Bareilles - Love Song
TTITLE6=Rihanna - Disturbia
TTITLE7=Alesha Dixon - The Boy Doe's Nothing
TTITLE8=Mariah Carey - All I Want For Christmas Is You
TTITLE9=Westlife - You Raise Me Up
TTITLE10=Gabriella Climi - Sweet About Me
TTITLE11=Rihanna - Don't Stop The Music
TTITLE12=Boyzone - Better
TTITLE13=Take That - Greatest Day
TTITLE14=Adele - Chasing Pavements
TTITLE15=Estelle Ft Kanye West - American Boy
EXTD=
EXTT0=
EXTT1=
EXTT2=
EXTT3=
EXTT4=
EXTT5=
EXTT6=
EXTT7=
EXTT8=
EXTT9=
EXTT10=
EXTT11=
EXTT12=
EXTT13=
EXTT14=
EXTT15=
PLAYORDER=
